<svg xmlns="http://www.w3.org/2000/svg" viewBox="0 0 140 190" version="1"><path fill-opacity=".5" d="M21 5h103a16 16 0 0 1 16 16v153a16 16 0 0 1-16 16H21a16 16 0 0 1-16-16V21A16 16 0 0 1 21 5z"/><path fill="#e7e7e7" d="M17 1h103a16 16 0 0 1 16 16v153a16 16 0 0 1-16 16H17a16 16 0 0 1-16-16V17A16 16 0 0 1 17 1z"/><path fill="#c7891f" d="M19 3h103a16 16 0 0 1 16 16v153a16 16 0 0 1-16 16H19a16 16 0 0 1-16-16V19A16 16 0 0 1 19 3z"/><path fill="#fff" d="M18 2h103a16 16 0 0 1 16 16v153a16 16 0 0 1-16 16H18a16 16 0 0 1-16-16V18A16 16 0 0 1 18 2z"/><g fill-rule="evenodd"><path d="M24.3 9.6c-2.7 0-4.9 3.3-4.9 7.3 0 3.4 4.4 9.2 4.3 12-1.4.7-5.8-6.5-8-6.5-2.7 0-4.9 3.3-4.9 7.3S13 37 15.6 37c2.4 0 6.3-7.2 8-6.6l-2.9 12.9h7l-3-12.8c1.7-.7 5.8 6.6 8.1 6.6 2.7 0 4.9-3.3 4.9-7.3s-2.2-7.3-4.9-7.3c-2.2 0-6.3 7.1-8 6.4 0-2.8 4.3-8.6 4.3-12 0-4-2.2-7.3-4.8-7.3zM114.7 176.6c2.7 0 4.9-3.3 4.9-7.3 0-3.4-4.4-9.2-4.3-12 1.4-.7 5.8 6.5 8 6.5 2.7 0 4.9-3.2 4.9-7.3 0-4-2.2-7.3-4.8-7.3-2.4 0-6.3 7.3-8 6.6l2.9-12.9h-7l3 12.9c-1.7.6-5.8-6.7-8.1-6.7-2.7 0-4.9 3.3-4.9 7.3s2.2 7.3 4.9 7.3c2.2 0 6.3-7.1 8-6.4 0 2.8-4.3 8.6-4.3 12 0 4 2.2 7.3 4.8 7.3z"/><g clip-rule="evenodd"><path d="M42 178c4.8-23 12.6-47.5 18.6-71 3.1 6.5 3 15.6-2 20-.4 2.1.4 3 .5 4.6-6.4 14.9-7.8 34.6-17.2 46.4zM47.5 124c-1.3-2.2 2.7-3.6 4.5-4.5-.3 2 .5 6-3 6 .8-1.8-.2-2.7-1.5-1.4zM76.2 42.4c.7 0 .5-.9 1-1 6 2 12.8 3 14.1 9.6-2 0-3.1-1-5.5-.5-4.3 1-4.1 6.5-6.6 11-2.8 5.3-7.5 8.7-7.5 14.2 0 4.3 3 7 5 11-11.8-4-22-16.7-16.1-32.2 4.3 1.3 6.8 4 11 4 7.2-1.6 8.6-11.3 4.6-16.1zM85.8 85.2c.2-2 5-1 5.5 0-1.3 1.6-3.8.8-5.5 0z" overflow="visible" fill="#e7a614"/><path d="M102 128.6c0-1.4 1-2.4 2-1.5.1 1.3-.8 1.6-2 1.5z" overflow="visible" fill="#130f06"/><path d="M111.5 15.7c.6 1.2 2.5 2.8 1.5 4-1.9.4-1-2-2.5-2-.9 0-1.3.4-1.5 1 .1 1.7 2.3 1.4 3 2.5-4.2 6-8.1-7-.5-5.5z" overflow="visible" fill="#e7a614"/><path d="M116.5 109c.1-1.5 1-2.2 2.6-2 .3 1.8-.8 2.1-2.6 2z" overflow="visible" fill="#130f06"/><path d="M87.8 33.8c.8-1.6 0-4.7 1-6 0 2.2.2 4.5-.5 6z" overflow="visible" fill="#f2d2ae"/><path d="M39 177.7c2.7-13.7 12-35.3 12.5-49.6-6-.3-9-7.5-2.5-9.6-1-4-3.9-7.3-2.5-12-3.5 1.1-5.4 4-9.6 4.5.1 2.6-.4 4.6-1.5 6-5 2-7.8-2.1-7.6-4.5.3-4 10.3-7.4 9-14.7-3-1-3.6 4.2-7.5 4-3.3 0-5.4-3.2-3-7.5 2-.7 2.7-1.2 4.5 0 4-.9 3.6-6.3 5.6-9.6a28 28 0 0 1 21.2-12c-2.6-7 1-13.3 1.5-20.2a15 15 0 0 0-21.2.5c-.8 3.6-2.6 7.7-8 8-2-1.6-3.8-3.3-3.1-7.5 11.1-5.1 17.3-20.3 33.3-18.2 3.2.5 5.2 3.2 10 2.5 1.2-1.1.9-6.5 1-6.5.5-2 1-2.9 2.6-5C76 23 79.4 19 84.3 17.1c1-.4 2.5 0 3.5-.5 2.2-1 4-3.9 6-4.6 4-1.3 9 .4 12.7 2.6 1.7-.4 2.5-1.5 5-1 10.5 3.6-2.6 16.7-6.5 6.5-7.8-2.4-14 1.4-16.2 7.6-1 1.3-.2 4.4-1 6-1.4 4 4.9 5.1.5 8.6 4.5-2 10.7-5.2 17.7-3 6.5 2 7 9.2 9.5 15 12-3.4 11.6 11.5 2.6 10.2-4.6-.7-8-10-14.2-10.6-6.5-.6-6.1 6-9.5 9 3 3.2 6.4 10 3 15.2-1.5 2.6-6.1 2.5-7-.5.2-1.6-1.4-1.4-1.6-2.5-1.7.7-1 4-4.5 3 .4 1.3 1.8 3 .5 4.5 2 .2 2.8-.9 5-.5 1.5.9 3.3 1.5 4 3 14 0 11.4 16.2 19.2 22.2 1-1.2.7-3.6 2.5-4 4.5-.6 5.6 2.1 6.6 5-.1 2.6-1.5 4-3 5h-1.5c-1.6-1.1-6-2.5-7.1 0-3.2.6-4.3.2-6.6-1-2 7 2 11.3 2 17.7-2.3 1.7-6 .9-7-1.5-.3-1.8.3-2.7 1-3.5.2-3.6-5.2-6-8-8-.3-.5-.6-1-.6-1.6-4.7 5.6.5 12.9 2 18.1-.4 0-.3.7-.5 1-1.7 3.1-6.5 2-8-.4 1.6-7.5-7-9.6-8.6-16.7v-.5c-.5 0-.4-.6-.5-1-2.1 1.4-2.9 4.2-4 6.6-1.9 3.2-5.6 3.5-4.6 8.5-1.1 1.5-4.7 3.2-6.5 1-.3 2-1.2 3.2-1.5 5-.6 3.4-2.3 5.5-2.6 9.2-2.3 4.8-9.5 27.2-10 33-6.8-.8-2.8-.8-7.5-1.6zM33.4 115c2.8-.3 1.4-2 1.5-4.6 6.6-4 14-6.7 16.1-15 .9-3.5-.6-7.8 3.5-9.7 1.6-.2 2 .7 2.6 1.6-3 10.2-13 19.9-5.6 31.7 2-3.3 1.4-6.2 3-9.6 1.7-3.3 6-5.3 7-8.5 1.7-4.6-.6-9.6 4.6-10.1 1 5.4-2.6 7.7-3 13-.4 5.2 3 9.4 3 14.2 0 3.2-2.3 5.7-2.5 8.6-1.2 0-2.4-.1-2.5 1 1.3 1.2-.7 2.7 1 3.5h2.5c2-1.5 0-4 .5-5 7.7-6.2 13.4-19.4 7.6-30.8 1 0 .6-1.4 2-1 6.3 4.2 1.3 13.5 2 19.7.9 7.5 8.1 11.6 12.1 16.1-.5 1.4-2.7 1-2 3.5.9 1.4 3.7 1.4 4.5 0-.2-4.4-3-5.5-4-9-1.2-4.6 1.6-8.2 2-13.1.6-6.8-3.2-10.6-5-16.7 1-.2 1.2-1 2.5-1 3 4.4 5.5 11.5 4.5 18.2 2.5 5.5 13.8 7.7 9.1 15.6 1 1.3 2.2 2.5 4 1.5-.6-4.7-3.4-8.6-3-14.1.1-1.5 1-3 1-4.6-.2-7.8-7.1-11-9.5-16.6-2.6.4-3.4-1-3-3.5.6 0 1-.3 1.4-.5 8.3 4.5 9.8 15.8 16.2 22.2 3.9-1.7 8.2-3.7 11.6-.5 2-3.1 0-7.1-3-6.1-1.5.2-.5 3-1.6 3.5-2 1-4.7-1.1-6.5-2-2.7-10.6-6.5-21.6-20.7-19.1-11.8 7.1-23.3-5.3-28.2-13.2-15.3-1.3-18.6 13.2-26.2 21.2-2.3-.4-6-.5-5.6 3 4 3 5.2-3.7 9-4 4.8-5.7 6.9-14 15.2-16.1-.2 4.7-4.3 5.4-7 8.6-5.3 5.9-3.8 15.5-10.1 20.6-.5 1.6-.1 2.6-.5 3-2-.2-3 .5-4 1-.2 2.4.8 3.5 3 3.6 0-1.5-2.9-1.6-.6-2.5 1.7.4.1 1 1 2zM59 131.6c0-1.6-.9-2.5-.5-4.5 5-4.5 5.1-13.6 2-20.2-6 23.6-13.8 48.1-18.7 71.1 9.4-11.8 10.8-31.5 17.2-46.4zm-10.1-6c3.5 0 2.7-4.1 3-6-1.8.8-5.8 2.2-4.5 4.5 1.3-1.3 2.3-.4 1.5 1.5zm28.2-84.2c3.7-1.5 6.6.6 9 0 1-3-1.5-5.5-1.4-8.6.3-7.5 9.4-16.4 14.1-16.6 2.9-.2 4.1 2.8 7 2 .5-1.5-4.1-2.2-5.5-3.6-1-.9-3.7-.3-5.5-.5-3.8 4.4-14 6-18.7 12.1-3.6 4.9-6.1 13.7 0 16.2 4 4.8 2.6 14.5-4.5 16.1-4.3 0-6.8-2.7-11.1-4-6 15.5 4.3 28.3 16.1 32.3-2-4-5-6.8-5-11.1 0-5.5 4.7-8.9 7.5-14.2 2.5-4.5 2.3-10 6.6-11 2.4-.4 3.5.5 5.5.5-1.3-6.6-8.1-7.7-14-9.6zm6 21.1c-10.7 3.4-10.1 18.6-3 25.3 1-.3 3.4.6 3.6-.5-1.3-.8-1.7-2.4-2-4 .2-1.4 2.7-1.8 1.5-3.1-2.5-2-9-8-3.6-12.6 1.8.5 3.4 1.4 3.6 3.5 1.8.2 1.3-2 3.5-1.5-1 1.9-1.1 2.3 1 3 0-1.4 0-2.7 1.5-2.5.5.5 1.9.2 1.5 1.5.8 1.8-1.7.3-1.5 1.5 2.6.8 2.3 4.5 5 5 6.3-8.6-5.7-16.2-5.5-23.6 2.4.8 3.9 2.5 3.5 6 2.4-.5 1.6-5.6 1-7.5h-2c-2.3.3-2.9-1.2-5-1-.1.7-.8.8-1 1.5a20.2 20.2 0 0 0-3.5 7.5c2.7-.5 7.3-.5 8.5.5-.6 1.2-.8 2.9-1.5 4-2.5 0-3-4.5-5.5-3zm-2 9.6c.2-1-.5-1-.5-2-2.4-.3-1.3 3.4-.5 4 2.4-1.9 3 2.1 5 2 0-1 1.5-.6 1-2-1-1.2-3.7-.8-5-2zm10.1 13.1c-.4-1-5.3-2-5.5 0 1.7.8 4.2 1.6 5.5 0zm20.7-64c-.7-1-2.9-.8-3-2.5.2-.7.6-1 1.5-1 1.4 0 .6 2.4 2.5 2 1-1.3-1-2.8-1.5-4-7.6-1.5-3.7 11.4.5 5.5z" overflow="visible" fill="#130f06"/><path d="M76.2 42.4c-6.1-2.5-3.6-11.3 0-16.2 4.6-6 15-7.7 18.7-12 1.8.1 4.4-.5 5.5.5 1 2 4 2 5.6 3.5-3 .8-4.2-2.2-7.1-2-4.7.2-13.8 9-14.1 16.6-.1 3.1 2.3 5.7 1.5 8.6-2.5.6-5.4-1.5-9 0-.6.1-.4 1-1 1z" overflow="visible" fill="#f2d2ae"/><path d="M100.4 14.7c1.4 1.3 6 2 5.6 3.5-1.5-1.6-4.7-1.4-5.6-3.5z" overflow="visible" fill="#e7a614"/><path d="M91.3 53h2c.6 2 1.4 7-1 7.5.4-3.5-1-5.2-3.5-6-.2 7.4 11.8 15 5.6 23.7-2.8-.6-2.5-4.3-5-5-.3-1.3 2.2.2 1.4-1.6.4-1.3-1-1-1.5-1.5-1.6-.2-1.6 1-1.5 2.5-2.1-.7-2-1.1-1-3-2.2-.5-1.7 1.7-3.5 1.5-.2-2.1-1.8-3-3.6-3.5-5.4 4.5 1 10.7 3.6 12.6 1.2 1.3-1.3 1.7-1.5 3 .3 1.7.7 3.3 2 4-.2 1.2-2.5.3-3.6.6-7.1-6.7-7.7-21.9 3-25.2 2.7 0 3.1 2.3 4.6 3.5.6 0 .9-.1 1-.5.7-1.2.9-2.9 1.5-4-1.2-1.1-5.8-1.1-8.5-.6.7-3 1.9-5.4 3.5-7.5 1.4-2.6 4.3 1.1 6-.5z" overflow="visible" fill="#f2d2ae"/><path d="M85.3 53.5c.2-.7.9-.8 1-1.5 2.1-.2 2.7 1.3 5 1-1.7 1.6-4.6-2-6 .5zM88.8 65.6c-.1.4-.4.6-1 .5-1.5-1.2-1.9-3.5-4.5-3.5 2.4-1.6 3 3 5.5 3zM86.3 74.1c-2-.3-4.3-.4-5-2 1.2 1.2 3.8.9 5 2z" overflow="visible" fill="#e7a614"/><path d="M86.3 74.1c.4 1.4-1 1-1 2-2.1.2-2.7-3.9-5-2-1-.6-2-4.2.4-4 0 1 .7 1 .5 2 .8 1.6 3.1 1.6 5 2z" overflow="visible" fill="#f2d2ae"/><path d="M32.3 113c-2.3.9.7 1 .5 2.5-2 0-3.1-1.2-3-3.5 1.1-.6 2-1.3 4-1 .5-.5.1-1.5.6-3 6.3-5.2 4.8-14.8 10-20.7 2.8-3.2 7-3.8 7.1-8.6-8.3 2-10.4 10.4-15.1 16.1-4 .3-5.1 7-9.1 4-.3-3.5 3.3-3.4 5.5-3 7.7-8 11-22.5 26.3-21.1 4.9 7.8 16.4 20.2 28.2 13 14.2-2.4 18 8.6 20.7 19.2 1.8.9 4.5 3 6.5 2 1.1-.5 0-3.3 1.5-3.5 3-1 5 3 3 6-3.3-3-7.7-1-11.5.6-6.4-6.4-7.9-17.7-16.2-22.2-.4.2-.8.5-1.5.5-.3 2.5.5 3.9 3 3.5 2.5 5.6 9.4 8.8 9.6 16.6 0 1.6-.9 3.1-1 4.6-.4 5.5 2.4 9.4 3 14.1-1.8 1-3-.2-4-1.5 4.7-8-6.6-10-9-15.6.9-6.7-1.7-13.8-4.6-18.2-1.3 0-1.6.8-2.5 1 1.8 6 5.6 9.9 5 16.7-.4 5-3.2 8.5-2 13 1 3.6 3.8 4.7 4 9.1-.9 1.4-3.6 1.4-4.5 0-.7-2.5 1.5-2.1 2-3.5-4-4.5-11.2-8.6-12-16.1-.8-6.2 4.2-15.5-2.1-19.7-1.4-.4-1 1-2 1 5.8 11.4 0 24.6-7.6 30.8-.5 1 1.4 3.5-.5 5h-2.5c-1.7-.8.3-2.3-1-3.5 0-1.1 1.3-1 2.5-1 .2-3 2.5-5.3 2.5-8.6 0-4.8-3.4-9-3-14.1.4-5.4 4-7.7 3-13.1-5.2.5-2.9 5.5-4.5 10-1.2 3.3-5.4 5.3-7 8.6-1.7 3.5-1.1 6.3-3.1 9.6-7.4-11.8 2.6-21.5 5.6-31.7-.5-1-1-1.8-2.6-1.6-4 1.9-2.6 6.2-3.5 9.6-2.2 8.5-9.5 11-16.1 15.2-.1 2.4 1.3 4.2-1.5 4.5-1-.9.6-1.6-1-2zm71.6 14c-.8-.8-2 .2-2 1.6 1.3.1 2.2-.2 2-1.5zm15.2-20c-1.7-.2-2.5.5-2.6 2 1.8.1 3-.2 2.6-2z" overflow="visible" fill="#e7a614"/></g></g></svg>